<svg width="26" height="24" viewBox="0 0 25.7815 24.0069" fill="none" xmlns="http://www.w3.org/2000/svg">
<path d="M14.1144 0.024227C7.37476 -0.406742 1.10079 5.08202 0.116132 12.2811C-0.868529 19.4802 4.36342 24.706 11.7696 23.9363C19.1757 23.1665 25.4633 17.6587 25.7692 11.655C26.0751 5.65123 20.8596 0.44571 14.1144 0.024227ZM21.7623 11.7078L19.4406 14.0009C19.3168 14.1253 19.1645 14.2181 18.9967 14.2714C18.829 14.3247 18.6507 14.337 18.4771 14.3072C18.3035 14.2774 18.1398 14.2063 17.9999 14.1001C17.8599 13.994 17.7479 13.8558 17.6734 13.6973L14.0666 6.07677C13.3196 6.31259 13.1994 6.93736 13.6242 7.86435L17.2432 15.6692C17.4834 16.1373 17.5785 16.6655 17.5164 17.1871C17.4481 17.6086 17.2282 18.0802 16.7857 18.1642C15.4446 18.4854 14.1021 18.789 12.7597 19.1129C12.7091 19.1305 12.6409 19.1305 12.5903 19.1468C12.1137 19.2647 11.6221 19.3487 11.129 19.4328C10.6866 19.5181 10.2796 19.5181 9.93953 19.1807L4.09711 13.3599C3.99553 13.2592 3.91495 13.1396 3.85996 13.008C3.80498 12.8764 3.77668 12.7353 3.77668 12.5928C3.77668 12.4503 3.80498 12.3092 3.85996 12.1776C3.91495 12.046 3.99553 11.9264 4.09711 11.8257L6.8599 9.08001C6.9852 8.95485 7.13958 8.86219 7.30945 8.81018C7.47933 8.75816 7.65948 8.74839 7.83406 8.78173C8.00863 8.81507 8.17227 8.89048 8.31056 9.00134C8.44885 9.1122 8.55756 9.25511 8.6271 9.41746C8.6271 9.41746 12.6873 18.5044 12.6873 18.5383C13.5204 18.2008 13.6733 17.5097 13.1803 16.4485C13.1803 16.4485 9.35638 8.13675 9.34136 8.11913C9.17065 7.71256 8.98355 7.25991 9.06822 6.80454C9.1007 6.56727 9.22153 6.35067 9.40691 6.19739C9.53137 6.10339 9.6781 6.04272 9.833 6.02121C10.4202 5.91821 11.0239 5.88568 11.618 5.83283C11.9034 5.80572 12.1875 5.77455 12.4729 5.73932C12.9987 5.67291 13.5081 5.62141 14.0352 5.55365C14.4941 5.5035 14.9912 5.40186 15.4624 5.41812C15.853 5.452 16.1589 5.75558 16.4306 5.99139C16.7707 6.29497 17.1449 6.56466 17.5013 6.85062C18.4191 7.55942 19.3355 8.26686 20.2532 8.99192C20.7285 9.34564 21.1873 9.71697 21.664 10.0883C21.7853 10.1832 21.8851 10.3025 21.9566 10.4384C22.0281 10.5743 22.0697 10.7237 22.0787 10.8767C22.0878 11.0298 22.064 11.183 22.009 11.3263C21.954 11.4695 21.869 11.5996 21.7596 11.7078H21.7623Z" fill="#4DB6FF"/>
</svg>
